<svg id="UNASUKE.FM" xmlns="http://www.w3.org/2000/svg" viewBox="0 0 1088.4 239.72"><defs><style>.cls-1{fill:#040000;}</style></defs><path class="cls-1" d="M1111.13,79.89l-21-3.71,13.25-26.9L1066,81.52l21,3.71-13.25,26.91Z" transform="translate(-22.73 -49.28)"/><path class="cls-1" d="M132.55,120.67h49.79l50.2,21V289H193.42V160H171.67V289H132.55V120.67Z" transform="translate(-22.73 -49.28)"/><path class="cls-1" d="M122.72,289H72.93l-50.2-21V120.67H61.85v129H83.6v-129h39.12V289Z" transform="translate(-22.73 -49.28)"/><path class="cls-1" d="M562,289H512.22L462,268V127.16h39.13V249.65h21.74V127.16H562V289Z" transform="translate(-22.73 -49.28)"/><path class="cls-1" d="M342.37,286.7H304.65v-6.45L292.37,289h-50V229.49l8.45-19.5,48.88-32.26V153.07l-7.86-8.17L284,153.07v22.37l-16.23,10.61H242.45v-46l49.7-21,50.22,21V286.7Zm-42.66-31.11V212.72L285,225.34v30.25l7.63,7.6,7-7.6Z" transform="translate(-22.73 -49.28)"/><path class="cls-1" d="M781.66,216.16H724.4v40.58l7.34,5.66,7.2-5.66V221.46h42.72V289h-100V141.49l49.77-22.4,50.22,21v76.1Zm-42.72-24.95V161.53l-7.2-8.17-7.34,8.17v29.68Z" transform="translate(-22.73 -49.28)"/><path class="cls-1" d="M641.39,203.09l30.67-75.93H631.23l-20.12,51.69V89.11H571.63V289h39.48V230.54L636.48,289h35.14V265.14Z" transform="translate(-22.73 -49.28)"/><path class="cls-1" d="M838.58,289H800.86V258.69h37.72V289Z" transform="translate(-22.73 -49.28)"/><path class="cls-1" d="M923,160.69H893.85V289H852.5V160.69H838.58V118.55H852.5V104.94l11.41-8.7,189.33-25.39V82.61L893.85,103.7v14.85H923v42.14Z" transform="translate(-22.73 -49.28)"/><path class="cls-1" d="M394.73,242.53V255l7.87,8.17,7.87-8.17L352.2,165.56v-25.5l50.22-21,49.77,21v46H426.92l-16.26-20.49V153.07l-7.87-8.17-7.87,8.17,57.27,89.46V289h-100V222h26.27Z" transform="translate(-22.73 -49.28)"/><path class="cls-1" d="M1031.71,118.86H978.36l-10,8.2v-8.2H931.94V289h36.47V160.69h20.28V289h36.49V160.69h20.28V289h36.47V140.06Z" transform="translate(-22.73 -49.28)"/></svg>